<svg width="142" height="44" viewBox="0 0 142 44" fill="none" xmlns="http://www.w3.org/2000/svg">
<path d="M6.78835 35H0.856534L9.89489 8.81818H17.0284L26.054 35H20.1222L13.5639 14.8011H13.3594L6.78835 35ZM6.41761 24.7088H20.429V29.0298H6.41761V24.7088Z" fill="#6E44FF"/>
<path d="M34.6193 8.81818V35H29.1733V8.81818H34.6193ZM44.5813 35.3707C43.3285 35.3707 42.212 35.1534 41.2319 34.7188C40.2518 34.2756 39.4762 33.6236 38.9052 32.7628C38.3427 31.8935 38.0614 30.8111 38.0614 29.5156C38.0614 28.4247 38.2617 27.5085 38.6623 26.767C39.0629 26.0256 39.6083 25.429 40.2987 24.9773C40.989 24.5256 41.7731 24.1847 42.6509 23.9545C43.5373 23.7244 44.4663 23.5625 45.4379 23.4688C46.5799 23.3494 47.5004 23.2386 48.1992 23.1364C48.8981 23.0256 49.4052 22.8636 49.7205 22.6506C50.0359 22.4375 50.1935 22.1222 50.1935 21.7045V21.6278C50.1935 20.8182 49.9379 20.1918 49.4265 19.7486C48.9237 19.3054 48.2077 19.0838 47.2788 19.0838C46.2987 19.0838 45.5188 19.3011 44.9393 19.7358C44.3597 20.1619 43.9762 20.6989 43.7887 21.3466L38.7518 20.9375C39.0075 19.7443 39.5103 18.7131 40.2603 17.8438C41.0103 16.9659 41.9776 16.2926 43.1623 15.8239C44.3555 15.3466 45.7362 15.108 47.3043 15.108C48.3952 15.108 49.4393 15.2358 50.4364 15.4915C51.4421 15.7472 52.3327 16.1435 53.1083 16.6804C53.8924 17.2173 54.5103 17.9077 54.962 18.7514C55.4137 19.5866 55.6396 20.5881 55.6396 21.7557V35H50.4748V32.277H50.3214C50.006 32.8906 49.5842 33.4318 49.0558 33.9006C48.5273 34.3608 47.8924 34.723 47.1509 34.9872C46.4094 35.2429 45.5529 35.3707 44.5813 35.3707ZM46.141 31.6122C46.9421 31.6122 47.6495 31.4545 48.2631 31.1392C48.8768 30.8153 49.3583 30.3807 49.7077 29.8352C50.0572 29.2898 50.2319 28.6719 50.2319 27.9815V25.8977C50.0614 26.0085 49.8271 26.1108 49.5288 26.2045C49.239 26.2898 48.9109 26.3707 48.5444 26.4474C48.1779 26.5156 47.8114 26.5795 47.445 26.6392C47.0785 26.6903 46.7461 26.7372 46.4478 26.7798C45.8086 26.8736 45.2504 27.0227 44.7731 27.2273C44.2958 27.4318 43.9251 27.7088 43.6609 28.0582C43.3967 28.3991 43.2646 28.8253 43.2646 29.3366C43.2646 30.0781 43.533 30.6449 44.07 31.0369C44.6154 31.4205 45.3058 31.6122 46.141 31.6122ZM59.967 35V8.81818H65.413V18.6619H65.5792C65.8178 18.1335 66.163 17.5966 66.6147 17.0511C67.0749 16.4972 67.6715 16.0369 68.4045 15.6705C69.146 15.2955 70.0664 15.108 71.1658 15.108C72.5977 15.108 73.9187 15.483 75.1289 16.233C76.3391 16.9744 77.3065 18.0952 78.0309 19.5952C78.7553 21.0866 79.1175 22.9574 79.1175 25.2074C79.1175 27.3977 78.7639 29.2472 78.0565 30.7557C77.3576 32.2557 76.4031 33.3935 75.1928 34.169C73.9911 34.9361 72.6445 35.3196 71.1531 35.3196C70.0962 35.3196 69.1971 35.1449 68.4556 34.7955C67.7227 34.446 67.1218 34.0071 66.6531 33.4787C66.1843 32.9418 65.8263 32.4006 65.5792 31.8551H65.3363V35H59.967ZM65.2979 25.1818C65.2979 26.3494 65.4599 27.3679 65.7837 28.2372C66.1076 29.1065 66.5763 29.7841 67.19 30.2699C67.8036 30.7472 68.5494 30.9858 69.4272 30.9858C70.3136 30.9858 71.0636 30.7429 71.6772 30.2571C72.2908 29.7628 72.7553 29.081 73.0707 28.2116C73.3945 27.3338 73.5565 26.3239 73.5565 25.1818C73.5565 24.0483 73.3988 23.0511 73.0835 22.1903C72.7681 21.3295 72.3036 20.6562 71.69 20.1705C71.0763 19.6847 70.3221 19.4418 69.4272 19.4418C68.5408 19.4418 67.7908 19.6761 67.1772 20.1449C66.5721 20.6136 66.1076 21.2784 65.7837 22.1392C65.4599 23 65.2979 24.0142 65.2979 25.1818ZM99.0895 20.9631L94.1037 21.2699C94.0185 20.8437 93.8352 20.4602 93.554 20.1193C93.2727 19.7699 92.902 19.4929 92.4418 19.2884C91.9901 19.0753 91.4489 18.9688 90.8182 18.9688C89.9744 18.9688 89.2628 19.1477 88.6832 19.5057C88.1037 19.8551 87.8139 20.3239 87.8139 20.9119C87.8139 21.3807 88.0014 21.777 88.3764 22.1009C88.7514 22.4247 89.3949 22.6847 90.3068 22.8807L93.8608 23.5966C95.7699 23.9886 97.1932 24.6193 98.1307 25.4886C99.0682 26.358 99.5369 27.5 99.5369 28.9148C99.5369 30.2017 99.1577 31.331 98.3991 32.3026C97.6491 33.2741 96.6179 34.0327 95.3054 34.5781C94.0014 35.1151 92.4972 35.3835 90.7926 35.3835C88.1932 35.3835 86.1222 34.8423 84.5795 33.7599C83.0455 32.669 82.1463 31.1861 81.8821 29.3111L87.2386 29.0298C87.4006 29.8224 87.7926 30.4276 88.4148 30.8452C89.0369 31.2543 89.8338 31.4588 90.8054 31.4588C91.7599 31.4588 92.527 31.2756 93.1065 30.9091C93.6946 30.5341 93.9929 30.0526 94.0014 29.4645C93.9929 28.9702 93.7841 28.5653 93.375 28.25C92.9659 27.9261 92.3352 27.679 91.483 27.5085L88.0824 26.831C86.1648 26.4474 84.7372 25.7827 83.7997 24.8366C82.8707 23.8906 82.4062 22.6847 82.4062 21.2188C82.4062 19.9574 82.7472 18.8707 83.429 17.9588C84.1193 17.0469 85.0866 16.3438 86.331 15.8494C87.5838 15.3551 89.0497 15.108 90.7287 15.108C93.2088 15.108 95.1605 15.6321 96.5838 16.6804C98.0156 17.7287 98.8509 19.1562 99.0895 20.9631Z" fill="white"/>
<path d="M134.602 4.07106L134.099 4.59474L133.631 5.08034L139.151 10.6005L139.643 10.1172L140.155 9.61492L139.646 9.10793L135.116 4.58286L134.602 4.07098L134.602 4.07106ZM131.369 4.83278L128.858 7.34173L136.735 15.2184L139.244 12.707L131.369 4.83278ZM119.698 9.26979C119.611 9.26979 119.524 9.27078 119.436 9.27208C115.6 9.33438 111.786 10.8283 108.858 13.7544C102.868 19.7426 102.869 29.4502 108.86 35.4396C114.852 41.429 124.567 41.4305 130.558 35.4396C135.625 30.3742 136.4 22.6588 132.888 16.7656L134.592 15.0898L133.585 14.0829L131.493 16.1396L131.079 16.5466L131.396 17.0346C133.653 20.5106 134.204 24.7615 133.043 28.6127C131.766 28.5227 130.636 27.4869 130.291 26.0229C130.06 25.0405 130.177 23.981 130.646 23.1926C127.635 24.4337 126.727 26.654 127.461 30.0339C124.566 30.441 124.876 26.7534 123.033 25.6182C122.9 28.7298 119.293 30.8641 117.471 28.6818C115.677 26.5348 117.769 23.5206 120.441 24.078C117.803 21.8947 115.437 22.095 113.012 24.4304C113.391 22.2598 114.217 20.8536 115.723 20.0672C110.801 20.4258 107.272 23.8019 106.152 27.7891C105.082 23.2595 106.318 18.3047 109.863 14.7614C111.883 12.7428 114.362 11.4734 116.961 10.9528C116.836 11.1082 116.747 11.2823 116.697 11.4693C116.299 12.9525 118.544 14.8414 121.71 15.6896C124.876 16.5379 127.763 16.0233 128.161 14.5399C128.279 14.0985 128.16 13.6203 127.856 13.145L128.175 12.8141L130.205 10.7027L129.196 9.69338L127.535 11.4217C125.125 9.9903 122.411 9.272 119.698 9.26987L119.698 9.26979ZM121.967 18.4222C120.459 18.4458 118.667 19.2479 116.916 21.0502C120.852 19.8531 124.044 20.2407 125.53 24.2661C126.36 20.7952 124.673 18.4679 122.112 18.4222C122.064 18.4215 122.015 18.4215 121.967 18.4222H121.967Z" fill="#6E44FF"/>
</svg>
